<svg width="9" height="14" viewBox="0 0 9 14" fill="none" xmlns="http://www.w3.org/2000/svg">
<path d="M6.94491 9.85081C6.51432 10.433 6.09025 11.0927 5.70207 11.8231C4.95506 13.0756 4.5473 13.9047 4.50163 14C4.45596 13.9047 4.04821 13.0756 3.3012 11.8231C2.91627 11.0927 2.48895 10.4365 2.05835 9.85081C1.47119 8.97228 0.786154 8.00202 0 7C0.786154 5.99798 1.47119 5.02772 2.05835 4.14919C2.48895 3.56704 2.91301 2.90726 3.3012 2.17692C4.04821 0.924395 4.45596 0.0952621 4.50489 0C4.55056 0.0952621 4.95832 0.924395 5.70533 2.17692C6.09025 2.90726 6.51758 3.56351 6.94817 4.14919C7.53534 5.02772 8.22037 5.99798 9.00652 7C8.22037 8.00202 7.53534 8.97228 6.94817 9.85081H6.94491Z" fill="#393431"/>
</svg>
