<svg width="32" height="33" viewBox="0 0 32 33" fill="none" xmlns="http://www.w3.org/2000/svg">
<rect y="0.301758" width="32" height="32.6982" rx="3.02761" fill="white"/>
<path d="M18.7764 21.854C17.2541 21.854 16.526 20.8098 16.526 19.6996C16.526 18.3511 17.3465 17.5981 17.8633 17.2678C18.7504 18.2061 19.929 19.1443 21.3453 19.5806C21.1204 20.3211 20.4313 21.854 18.7764 21.854ZM13.2189 21.854C11.564 21.854 10.8752 20.3211 10.65 19.5806C12.0663 19.1443 13.2446 18.2061 14.132 17.2678C14.6489 17.5981 15.4693 18.3511 15.4693 19.6996C15.4693 20.8098 14.7412 21.854 13.2189 21.854ZM15.4693 13.6035C15.4693 14.952 14.6489 15.705 14.132 16.0353C13.245 15.097 12.0663 14.1588 10.65 13.7225C10.8749 12.9819 11.5637 11.449 13.2189 11.449C14.7412 11.449 15.4693 12.4933 15.4693 13.6035ZM16.7185 17.4274C16.5917 17.5857 16.4666 17.7652 16.3522 17.9642C16.1318 18.3051 16.0116 18.5309 15.998 18.5567C15.9846 18.5309 15.8641 18.3051 15.6437 17.9642C15.5302 17.7652 15.4042 17.5866 15.2774 17.4274C15.1042 17.1882 14.9023 16.9242 14.6704 16.6511C14.9023 16.3783 15.1045 16.1143 15.2774 15.8751C15.4042 15.7165 15.5293 15.5369 15.6437 15.338C15.8641 14.9971 15.9843 14.7715 15.998 14.7455C16.0113 14.7715 16.1318 14.9971 16.3522 15.338C16.4657 15.5369 16.5917 15.7156 16.7185 15.8751C16.8917 16.1143 17.0936 16.3783 17.3256 16.6511C17.0936 16.9239 16.8914 17.1879 16.7185 17.4274ZM18.7764 11.449C20.4313 11.449 21.1201 12.9819 21.3453 13.7225C19.929 14.1588 18.7507 15.097 17.8633 16.0353C17.3465 15.705 16.526 14.952 16.526 13.6035C16.526 12.4933 17.2541 11.449 18.7764 11.449ZM23.0002 13.4585C22.656 13.4585 22.3111 13.4978 21.9938 13.5641C21.9536 13.4509 21.9006 13.3134 21.8343 13.1609C21.4216 12.017 20.5297 10.5244 18.6844 10.5244C17.4134 10.5244 16.3588 11.2123 15.998 12.4972C15.6371 11.212 14.5825 10.5244 13.3116 10.5244C11.4662 10.5244 10.5743 12.017 10.1616 13.1609C10.0962 13.3137 10.0433 13.4512 10.0021 13.5641C9.68479 13.4981 9.33994 13.4585 8.9957 13.4585C7.60543 13.4585 6.41406 14.1857 6.41406 15.9432C6.41406 17.3974 7.3281 18.2206 7.3281 18.2206L7.6139 17.7816C7.70049 17.6768 7.70443 17.527 7.61966 17.4204C7.42256 17.1697 7.10315 16.6541 7.10315 15.9432C7.10315 14.8721 7.97691 14.3834 9.07563 14.3834C9.33449 14.3834 9.5876 14.4037 9.83465 14.4403C9.83465 14.4449 9.83375 14.4479 9.83375 14.4479C11.4108 14.7167 12.749 15.6535 13.7708 16.6514C12.7481 17.6496 11.4108 18.5857 9.83375 18.8549C9.83375 18.8549 10.3206 22.7787 13.3131 22.7787C14.5841 22.7787 15.6386 22.0908 15.9995 20.8059C16.3604 22.0911 17.4146 22.7787 18.6859 22.7787C21.6771 22.7787 22.1649 18.8549 22.1649 18.8549C20.5881 18.586 19.2496 17.6496 18.2278 16.6514C19.2505 15.6535 20.5878 14.717 22.1649 14.4479C22.1649 14.4479 22.1649 14.4449 22.1643 14.4403C22.4113 14.4037 22.6644 14.3834 22.9233 14.3834C24.022 14.3834 24.8958 14.8724 24.8958 15.9432C24.8958 16.6541 24.5764 17.1697 24.379 17.4204C24.2954 17.5273 24.2981 17.6777 24.3847 17.7816L24.6702 18.1246C24.6702 18.1246 25.5846 17.3974 25.5846 15.9432C25.5846 14.1857 24.3932 13.4585 23.0029 13.4585H23.0011H23.0002Z" fill="#383431"/>
</svg>
