<?xml version="1.0" encoding="UTF-8"?>
<svg id="Logo_e_icono" data-name="Logo e icono" xmlns="http://www.w3.org/2000/svg" viewBox="0 0 1910.98 1080">
  <path d="M1626.89,738.35s15.57-12.74,4.25-46.72l-21.71-67.48h-121.28l-21.71,67.48c-10.86,33.98,4.25,46.72,4.25,46.72h-62.29s23.6-12.74,34.45-46.72l78.81-243.03c11.32-33.97-3.78-47.19-3.78-47.19h26.42c15.57,0,28.79,9.91,33.98,24.54l85.89,265.68c11.33,33.98,34.92,46.72,34.92,46.72h-72.2ZM1493.82,607.64h110.43l-55.21-169.88-55.21,169.88Z"/>
  <path d="M1237.66,714.76h84c49.07,0,75.03-19.35,75.03-19.35l-7.56,42.95h-204.33s19.82-12.74,19.82-46.72v-243.03c0-33.98-19.82-47.19-19.82-47.19h199.61v39.64s-16.99-15.57-71.26-15.57h-75.5v125.52h127.41l-6.6,35.86s-11.8-12.26-51.44-12.26h-69.37v140.15Z"/>
  <path d="M1123.25,691.63c18.4,33.98,44.83,46.72,44.83,46.72,0,0-8.03,4.72-31.15,4.72-20.29,0-29.73-11.8-39.64-30.2l-61.81-115.14-69.84,13.69v80.22c0,33.98,19.35,46.72,19.35,46.72h-71.73s19.35-12.74,19.35-46.72v-243.02c0-33.98-19.35-47.2-19.35-47.2h123.17c53.32,0,97.21,43.42,97.21,97.22,0,41.53-26.43,77.86-64.65,91.55l54.27,101.46ZM965.63,425.01v158.08l74.56-13.21c34.92-6.14,60.41-36.34,60.41-71.73,0-40.11-33.03-73.14-73.15-73.14h-61.81Z"/>
  <path d="M729.05,714.76h84c49.07,0,75.03-19.35,75.03-19.35l-7.56,42.95h-204.33s19.82-12.74,19.82-46.72v-243.03c0-33.98-19.82-47.19-19.82-47.19h199.61v39.64s-16.99-15.57-71.26-15.57h-75.5v125.52h127.41l-6.6,35.86s-11.8-12.26-51.44-12.26h-69.37v140.15Z"/>
  <path d="M443.25,401.42h211.88l-7.56,42.94s-9.43-19.34-43.41-19.34h-42v266.62c0,33.98,19.35,46.71,19.35,46.71h-71.72s19.34-12.73,19.34-46.71v-266.62h-42.94c-33.98,0-50.49,19.34-50.49,19.34l7.55-42.94Z"/>
  <path d="M264.73,714.76h84c49.07,0,75.03-19.35,75.03-19.35l-7.56,42.95h-204.33s19.82-12.74,19.82-46.72v-243.03c0-33.98-19.82-47.19-19.82-47.19h199.61v39.64s-16.99-15.57-71.26-15.57h-75.5v125.52h127.41l-6.6,35.86s-11.8-12.26-51.44-12.26h-69.37v140.15Z"/>
  <path d="M841.99,346.24l-49.96,29.34c-5.5,3.55-11.95,5.43-18.5,5.43h-17.11l39.07-35.14c13.17-12.04,33.53-11.9,46.5.34v.03Z"/>
</svg>