<?xml version="1.0" encoding="UTF-8"?>
<svg id="Logo_e_icono" data-name="Logo e icono" xmlns="http://www.w3.org/2000/svg" viewBox="0 0 633.18 404.75">
  <defs>
    <style>
      .cls-1 {
        fill: #eeece7;
      }
    </style>
  </defs>
  <path class="cls-1" d="M408.34,374.22c-50.28,0-74.33-34.49-74.33-71.16,0-44.54,27.1-69.41,44.17-80.32,29.3,30.99,68.23,61.98,115.01,76.39-7.43,24.46-30.19,75.09-84.85,75.09M224.78,374.22c-54.66,0-77.41-50.63-84.85-75.09,46.78-14.41,85.7-45.4,115.01-76.39,17.07,10.91,44.17,35.78,44.17,80.32,0,36.67-24.05,71.16-74.33,71.16M299.11,101.71c0,44.54-27.1,69.41-44.17,80.32-29.3-30.99-68.23-61.98-115.01-76.39,7.43-24.46,30.18-75.09,84.85-75.09,50.28,0,74.33,34.49,74.33,71.16M340.36,228.01c-4.19,5.23-8.32,11.16-12.1,17.73-7.28,11.26-11.25,18.72-11.7,19.57-.44-.85-4.42-8.31-11.7-19.57-3.75-6.57-7.91-12.47-12.1-17.73-5.72-7.9-12.39-16.62-20.05-25.64,7.66-9.01,14.34-17.73,20.05-25.63,4.19-5.24,8.32-11.17,12.1-17.74,7.28-11.26,11.25-18.71,11.7-19.57.44.86,4.42,8.31,11.7,19.57,3.75,6.57,7.91,12.47,12.1,17.74,5.72,7.9,12.39,16.62,20.05,25.63-7.66,9.01-14.34,17.73-20.05,25.64M408.34,30.55c54.66,0,77.41,50.63,84.85,75.09-46.78,14.41-85.7,45.4-115.01,76.39-17.07-10.91-44.17-35.78-44.17-80.32,0-36.67,24.05-71.16,74.33-71.16M547.85,96.92c-11.37,0-22.76,1.3-33.24,3.49-1.33-3.74-3.08-8.28-5.27-13.32C495.7,49.3,466.24,0,405.29,0c-41.98,0-76.81,22.72-88.73,65.16C304.64,22.72,269.81,0,227.83,0c-60.95,0-90.41,49.3-104.04,87.08-2.16,5.05-3.91,9.59-5.27,13.32-10.48-2.18-21.87-3.49-33.24-3.49C39.35,96.92,0,120.94,0,178.99c0,48.03,30.19,75.22,30.19,75.22l9.44-14.5c2.86-3.46,2.99-8.41.19-11.93-6.51-8.28-17.06-25.31-17.06-48.79,0-35.38,28.86-51.52,65.15-51.52,8.55,0,16.91.67,25.07,1.88,0,.15-.03.25-.03.25,52.09,8.88,96.29,39.82,130.04,72.78-33.78,32.97-77.95,63.89-130.04,72.78,0,0,16.08,129.6,114.92,129.6,41.98,0,76.81-22.72,88.73-65.16,11.92,42.45,46.74,65.16,88.73,65.16,98.8,0,114.91-129.6,114.91-129.6-52.08-8.88-96.29-39.81-130.04-72.78,33.78-32.96,77.95-63.89,130.04-72.78,0,0,0-.1-.02-.25,8.16-1.21,16.52-1.88,25.07-1.88,36.29,0,65.15,16.15,65.15,51.52,0,23.48-10.55,40.51-17.07,48.79-2.76,3.53-2.67,8.5.19,11.93l9.43,11.33s30.2-24.02,30.2-72.05c0-58.05-39.35-82.07-85.27-82.07h-.06Z"/>
</svg>